<svg version="1.2" xmlns="http://www.w3.org/2000/svg" viewBox="0 0 1111 277" width="1111" height="277">
	<style>
		.s0 { fill: #ffffff } 
	</style>
	<g id="08  patiÄka">
		<path id="-e-logo" fill-rule="evenodd" class="s0" d="m186.54 175.97q0 12.78-1.11 17.77h-142.14q4.07 20.73 18.14 32.58 14.06 11.84 36.09 11.84 17.02 0 29.33-7.4 12.31-7.4 15.09-19.25h42.38q-5.18 29.24-29.24 47.01-24.06 17.77-58.3 17.77-26.84 0-48.86-12.68-22.03-12.68-34.71-35.07-12.67-22.4-12.67-49.6 0-26.47 12.67-48.4 12.68-21.93 34.61-34.52 21.94-12.58 48.22-12.59 24.8 0.01 45.43 11.66 20.64 11.67 32.86 33.04 12.21 21.38 12.21 47.84zm-142.14-18.32h96.24q-2.78-16.1-15.45-26-12.68-9.9-31.56-9.9-18.69 0-31.65 9.44-12.95 9.44-17.58 26.46zm277.77-116.23q-5-1.48-13.33-1.48-16.29 0-25.54 8.05-9.25 8.06-9.25 24.9v14.43h48.12v40.16h-48.12v145.11h-42.39v-145.11h-35.35v-40.16h35.35v-15.17q0-34.61 18.42-53.4 18.41-18.78 49.69-18.79 12.4 0.01 22.4 2.41zm97.13 234.87q-40.72 0-68.3-27.58-27.58-27.58-27.57-68.66-0.01-41.09 27.57-68.85 27.58-27.77 68.3-27.77 22.02 0.01 41.36 9.07 19.34 9.07 31.93 25.17 12.58 16.11 15.36 35.91h-43.12q-3.52-12.77-16.29-21.19-12.77-8.42-29.24-8.42-23.14 0-38.68 16.1-15.55 16.1-15.55 39.98 0 23.69 15.64 39.7 15.64 16 38.59 16 16.65 0.01 29.52-8.69 12.86-8.7 16.38-22.4h43.12q-3.7 31.28-29.24 51.45-25.54 20.18-59.78 20.18zm258.7-267.07l-43.12 56.82h-39.05l31.46-56.82zm32.57 166.75q0 12.77-1.11 17.77h-142.14q4.07 20.73 18.14 32.58 14.06 11.84 36.09 11.84 17.02 0 29.33-7.4 12.31-7.4 15.09-19.25h42.38q-5.18 29.24-29.24 47.01-24.06 17.77-58.3 17.77-26.84 0-48.86-12.68-22.03-12.68-34.7-35.07-12.68-22.4-12.68-49.6 0-26.47 12.68-48.4 12.67-21.93 34.61-34.52 21.93-12.59 48.21-12.59 24.8 0 45.44 11.66 20.63 11.66 32.85 33.04 12.21 21.38 12.21 47.84zm-142.14-18.32h96.24q-2.77-16.1-15.45-26-12.68-9.9-31.56-9.9-18.69 0-31.65 9.43-12.95 9.44-17.58 26.47zm250.93 118.64q-40.72 0-68.29-27.58-27.58-27.58-27.58-68.66 0-41.09 27.58-68.85 27.57-27.77 68.29-27.77 22.03 0.01 41.37 9.07 19.34 9.07 31.92 25.17 12.59 16.11 15.37 35.91h-43.13q-3.52-12.77-16.29-21.19-12.77-8.42-29.24-8.42-23.13 0-38.68 16.1-15.55 16.1-15.55 39.98 0 23.69 15.64 39.7 15.64 16 38.59 16 16.66 0.01 29.52-8.69 12.86-8.7 16.38-22.4h43.13q-3.71 31.28-29.25 51.45-25.54 20.18-59.78 20.18zm258.71-267.07l-43.13 56.82h-39.05l31.46-56.82zm32.58 166.75q0 12.77-1.11 17.77h-142.14q4.07 20.73 18.13 32.58 14.07 11.84 36.1 11.84 17.02 0 29.33-7.4 12.31-7.4 15.08-19.25h42.39q-5.19 29.24-29.25 47.01-24.06 17.77-58.3 17.77-26.83 0-48.86-12.68-22.02-12.68-34.7-35.07-12.68-22.4-12.68-49.6 0-26.47 12.68-48.4 12.68-21.93 34.61-34.52 21.93-12.59 48.21-12.59 24.8 0 45.44 11.66 20.64 11.66 32.85 33.04 12.22 21.38 12.22 47.84zm-142.14-18.32h96.24q-2.78-16.1-15.46-26-12.67-9.9-31.55-9.9-18.7 0-31.65 9.43-12.96 9.44-17.58 26.47z"/>
	</g>
</svg>